<?xml version="1.0" encoding="UTF-8"?>
<svg id="Layer_2" data-name="Layer 2" xmlns="http://www.w3.org/2000/svg" xmlns:xlink="http://www.w3.org/1999/xlink" viewBox="0 0 486.62 89.3">
  <defs>
    <radialGradient id="radial-gradient" cx="9174.37" cy="1365.77" fx="9174.37" fy="1365.77" r="53.27" gradientTransform="translate(-2765.1616 -375.7928) scale(.3074)" gradientUnits="userSpaceOnUse">
      <stop offset=".15" stop-color="#a4bf5f"/>
      <stop offset=".69" stop-color="#758e4e"/>
    </radialGradient>
  </defs>
  <g id="Layer_1-2" data-name="Layer 1">
    <g>
      <g>
        <path d="M106.59,67.35v-3.74h4.18l16.99-48.9h5.36l17.02,48.9h4.69v3.74h-17.34v-3.74h5.3l-3.99-11.57h-20.05l-3.99,11.57h5.23v3.74h-13.41ZM120.06,48.27h17.5l-8.74-25.03-8.75,25.03Z" fill="#758e4e"/>
        <path d="M153.94,65.26v-8.74h3.38c.09,2.79.88,4.89,2.38,6.27,1.5,1.39,3.72,2.07,6.66,2.07,2.63,0,4.65-.54,6.03-1.64,1.38-1.09,2.07-2.68,2.07-4.77,0-1.65-.5-2.97-1.52-3.98-1.01-1.01-3.14-2.09-6.4-3.24l-4.25-1.59c-2.91-1.03-5.03-2.33-6.34-3.88-1.31-1.55-1.96-3.52-1.96-5.93,0-3.43,1.14-6.12,3.42-8.07,2.28-1.95,5.43-2.92,9.45-2.92,1.79,0,3.68.26,5.66.78,1.98.51,4.02,1.27,6.13,2.25v8.18h-3.39c-.08-2.42-.85-4.31-2.3-5.68-1.45-1.36-3.41-2.04-5.9-2.04s-4.34.48-5.6,1.45c-1.27.96-1.9,2.41-1.9,4.33,0,1.58.48,2.84,1.44,3.79.96.95,2.87,1.91,5.74,2.91l4.66,1.59c3.21,1.1,5.52,2.49,6.95,4.14,1.41,1.66,2.12,3.79,2.12,6.4,0,3.55-1.23,6.34-3.69,8.37-2.46,2.04-5.84,3.05-10.17,3.05-2.19,0-4.33-.26-6.42-.77-2.09-.52-4.17-1.29-6.25-2.33Z" fill="#758e4e"/>
        <path d="M183.57,65.26v-8.74h3.39c.08,2.79.88,4.89,2.37,6.27,1.5,1.39,3.72,2.07,6.67,2.07,2.63,0,4.64-.54,6.02-1.64,1.39-1.09,2.08-2.68,2.08-4.77,0-1.65-.51-2.97-1.52-3.98-1.01-1.01-3.15-2.09-6.4-3.24l-4.25-1.59c-2.91-1.03-5.03-2.33-6.34-3.88-1.31-1.55-1.96-3.52-1.96-5.93,0-3.43,1.14-6.12,3.41-8.07,2.28-1.95,5.43-2.92,9.46-2.92,1.78,0,3.67.26,5.65.78,1.98.51,4.02,1.27,6.13,2.25v8.18h-3.38c-.09-2.42-.85-4.31-2.3-5.68-1.45-1.36-3.42-2.04-5.91-2.04s-4.34.48-5.6,1.45c-1.27.96-1.9,2.41-1.9,4.33,0,1.58.47,2.84,1.43,3.79.96.95,2.88,1.91,5.75,2.91l4.66,1.59c3.22,1.1,5.53,2.49,6.95,4.14,1.42,1.66,2.12,3.79,2.12,6.4,0,3.55-1.22,6.34-3.68,8.37-2.47,2.04-5.85,3.05-10.17,3.05-2.19,0-4.33-.26-6.42-.77-2.08-.52-4.17-1.29-6.26-2.33Z" fill="#758e4e"/>
        <path d="M244.97,49.3h-25.32v.29c0,5.05.86,8.86,2.59,11.44,1.73,2.57,4.27,3.86,7.63,3.86,2.58,0,4.68-.74,6.33-2.24,1.65-1.49,2.81-3.71,3.47-6.64h4.72c-.93,4.11-2.67,7.2-5.19,9.27-2.52,2.07-5.83,3.1-9.94,3.1-4.96,0-8.94-1.81-11.95-5.41-3.02-3.61-4.52-8.4-4.52-14.37s1.48-10.69,4.44-14.31c2.96-3.62,6.85-5.43,11.65-5.43,5.13,0,9.07,1.74,11.81,5.23,2.74,3.5,4.17,8.56,4.28,15.22ZM238.04,45.56c-.13-4.37-.96-7.67-2.5-9.88-1.54-2.23-3.76-3.33-6.66-3.33-2.71,0-4.83,1.11-6.38,3.35-1.56,2.23-2.5,5.52-2.84,9.87h18.39Z" fill="#758e4e"/>
        <path d="M251.36,33.64h-5.17v-3.78h5.17v-11.63h5.91v11.63h11.05v3.78h-11.05v23.79c0,3.17.27,5.21.83,6.11.55.89,1.57,1.33,3.07,1.33s2.65-.49,3.35-1.5c.7-1,1.08-2.61,1.12-4.85h4.43c-.17,3.41-1.01,5.9-2.52,7.47-1.52,1.57-3.81,2.36-6.9,2.36-3.39,0-5.78-.83-7.19-2.48-1.4-1.66-2.1-4.47-2.1-8.45v-23.79Z" fill="#758e4e"/>
        <path d="M266.3,67.35v-3.4h3.8l15.44-44.45h4.88l15.47,44.45h4.27v3.4h-15.76v-3.4h4.82l-3.63-10.52h-18.23l-3.63,10.52h4.77v3.4h-12.19ZM278.55,50h15.91l-7.95-22.76-7.96,22.76Z" fill="#3277bc"/>
        <path d="M308.45,67.35v-3.4h4.82v-27.24h-5.1v-3.42h10.45v6.05c.98-2.31,2.27-4.05,3.85-5.22,1.57-1.17,3.41-1.76,5.5-1.76,3.41,0,5.92,1.08,7.52,3.23,1.6,2.16,2.41,5.53,2.41,10.1v18.27h4.76v3.4h-14.74v-3.4h4.62v-16.41c0-4.17-.47-7.03-1.4-8.57-.93-1.54-2.56-2.32-4.91-2.32-2.48,0-4.36.99-5.65,2.99-1.3,2-1.95,4.91-1.95,8.74v15.57h4.64v3.4h-14.8Z" fill="#3277bc"/>
        <path d="M369.72,46.06v17.89h4.77v3.4h-10.11v-3.69c-1.18,1.58-2.54,2.74-4.09,3.49-1.55.75-3.36,1.12-5.43,1.12-3.42,0-6.14-1.01-8.16-3.01-2.01-2.01-3.02-4.72-3.02-8.14s1.15-6.26,3.46-8.21c2.3-1.94,5.55-2.92,9.75-2.92h7.49v-2.34c0-2.59-.71-4.59-2.13-6.01-1.42-1.42-3.42-2.13-5.99-2.13-2.13,0-3.82.54-5.08,1.6-1.25,1.07-2.04,2.65-2.35,4.74h-2.75v-6.89c1.86-.87,3.66-1.53,5.41-1.97,1.75-.44,3.46-.66,5.13-.66,4.27,0,7.53,1.16,9.76,3.51,2.24,2.34,3.35,5.74,3.35,10.2ZM364.38,56.64v-7.21h-6.88c-2.65,0-4.62.63-5.92,1.89-1.3,1.27-1.94,3.2-1.94,5.8,0,2.37.65,4.25,1.97,5.64,1.31,1.39,3.09,2.08,5.34,2.08s4.02-.76,5.38-2.28c1.37-1.52,2.05-3.49,2.05-5.93Z" fill="#3277bc"/>
        <path d="M384.8,63.95h5.05v3.4h-15.53v-3.4h5.14V20.88h-5.14v-3.4h10.48v46.47Z" fill="#3277bc"/>
        <path d="M400.87,73.6l2.04-5.68-11.52-31.21h-3.51v-3.42h14.19v3.42h-4.93l8.68,23.43,8.68-23.43h-4.62v-3.42h11.58v3.42h-3.45l-14.13,38.33c-.97,2.65-2.05,4.46-3.22,5.43-1.18.97-2.85,1.46-4.99,1.46-.91,0-1.84-.08-2.8-.25-.96-.18-1.92-.42-2.89-.74v-6.51h2.73c.11,1.45.45,2.49,1,3.12.55.63,1.41.95,2.57.95,1.07,0,1.92-.33,2.57-.98.65-.65,1.33-1.96,2.04-3.92Z" fill="#3277bc"/>
        <path d="M424.48,36.71h-4.7v-3.42h4.7v-10.58h5.37v10.58h10.05v3.42h-10.05v21.63c0,2.88.25,4.73.76,5.54.5.81,1.43,1.21,2.78,1.21s2.41-.46,3.05-1.36c.64-.91.97-2.37,1.02-4.41h4.03c-.16,3.1-.91,5.36-2.29,6.79-1.38,1.43-3.46,2.14-6.27,2.14-3.08,0-5.26-.75-6.53-2.25-1.28-1.51-1.91-4.07-1.91-7.68v-21.63Z" fill="#3277bc"/>
        <path d="M450.98,63.95h5.05v3.4h-15.5v-3.4h5.11v-27.24h-5.11v-3.42h10.45v30.67ZM444.16,22.7c0-.98.32-1.84.97-2.56.65-.73,1.43-1.09,2.34-1.09s1.66.36,2.31,1.09c.65.72.97,1.58.97,2.56s-.31,1.86-.96,2.57c-.64.7-1.41,1.05-2.32,1.05s-1.69-.36-2.34-1.05c-.65-.71-.97-1.56-.97-2.57Z" fill="#3277bc"/>
        <path d="M471.12,46.54l6.48-9.84h-4.15v-3.42h11.87v3.42h-4.1l-8.27,12.59,9.63,14.65h4.04v3.4h-14.25v-3.4h3.92l-6.71-10.19-6.73,10.19h4v3.4h-11.72v-3.4h4.09l8.5-12.95-9.38-14.29h-3.8v-3.42h13.79v3.42h-3.69l6.47,9.84Z" fill="#758e4e"/>
      </g>
      <g>
        <g>
          <path d="M76.73,31.35L107.47,0h-21.68l-20.58,20.89c.08.03.15.07.24.09,4.93,2.3,8.76,5.98,11.28,10.36Z" fill="#f47920"/>
          <g>
            <path d="M93.49,74.94l-17.2-17.41c-2.92,4.71-7.2,8.17-12.07,10.13l6.93,7.28h22.34Z" fill="#3277bc"/>
            <g>
              <path d="M32.19,55.96L0,89.3h22.32l21.57-22.16c-5.22-2.44-9.21-6.44-11.7-11.18Z" fill="#f47920"/>
              <path d="M42.43,21.79l-8.97-10.37H11.91l19.89,21.51c2.38-4.9,6.16-8.7,10.62-11.15Z" fill="#3277bc"/>
            </g>
          </g>
        </g>
        <path d="M39.96,37.09c3.82-8.18,13.56-11.73,21.74-7.92,8.19,3.84,11.74,13.56,7.92,21.77-3.82,8.18-13.56,11.73-21.76,7.9-8.19-3.81-11.74-13.56-7.9-21.75Z" fill="url(#radial-gradient)"/>
      </g>
    </g>
  </g>
</svg>